<?xml version="1.0" encoding="utf-8"?>
<!-- Generator: Adobe Illustrator 26.2.1, SVG Export Plug-In . SVG Version: 6.00 Build 0)  -->
<svg version="1.1" id="Layer_1" xmlns="http://www.w3.org/2000/svg" xmlns:xlink="http://www.w3.org/1999/xlink" x="0px" y="0px"
	 viewBox="0 0 874 143" style="enable-background:new 0 0 874 143;" xml:space="preserve">
<style type="text/css">
	.st0{fill:#C3C3C3;}
	.st1{fill:#C5C5C5;}
</style>
<path id="Path_00000129885712037771705230000003794563166776401853_" class="st0" d="M162.3,98.4V0.6h-2.1l-31.4,8.7v2.1l2.3,0.3
	c5.7,0.8,8.4,3.7,8.4,8.4v78.2c0,6.1-2,8-7.8,9.6v2h38.4v-2C164.3,106.3,162.3,104.5,162.3,98.4z"/>
<path id="Shape_00000178918721598209523210000003000921751241974915_" class="st0" d="M229.3,97l-24.5-2c-6.6-0.5-11.2-4.4-11.2-7.7
	c0-2.4,1.4-5,3.5-6.9c5.2,2.3,11,3.4,16.7,3.4c20.2,0,33.2-11.6,33.2-26.6c0-8.6-4.1-15.8-10.9-20.5h16.5v-4.3h-25.1
	c-4.1-1.4-8.9-2.1-13.8-2.1c-20.2,0-33.4,11.8-33.4,26.9c0,10.7,6.1,18.1,14.5,22.2c-7.5,3.8-12.1,9.8-12.1,16.1
	c0,4.7,2.8,9.5,9,12.9c-9,1.4-16.7,7-16.7,16.7c0,9.9,13.9,17.4,35.6,17.4c24.8,0,43.1-10.4,43.1-25.6
	C254.1,104.6,244.3,98,229.3,97z M212.7,34.6c8.4,0,13.9,10.9,13.9,25.1c0,11.8-4.7,19.9-11.6,19.9c-8.3,0-14.1-10.4-14.1-24.9
	C200.9,42.8,205.8,34.6,212.7,34.6z M217.4,138.3c-14.7,0-26.6-7-26.6-19.7c0-4,2.4-6.9,4.3-9c2.8,1.1,6.1,1.8,10.1,2.3l20.7,1.8
	c11.6,1.5,15.8,5.7,15.8,11C241.6,132.8,230.7,138.3,217.4,138.3z"/>
<path id="Shape_00000062879105573159201070000009469001145049545371_" class="st0" d="M299.1,112.1c22.3,0,37.8-17.1,37.8-42.2
	c0-23.3-14.8-39.2-36.4-39.2c-22.3,0-37.8,17.3-37.8,42.4C262.7,96.2,277.5,112.1,299.1,112.1z M301.9,107.8
	c-15.9,0-22.8-22.3-22.8-41.6c0-18.4,7-31.2,18.8-31.2c15.8,0,22.8,22.5,22.8,41.5C320.7,95,313.6,107.8,301.9,107.8z"/>
<path id="Path_00000130615790444172447340000003207236849045183413_" class="st0" d="M395,31c-8.7,0-16.7,7.3-22,21.1V31h-2.1
	l-22.2,6.3v2.1h3.7c5.5,0.3,8,2.8,8,8v51.1c0,6.7-4.9,8.3-11,9.3v2.1H388v-2.1c-10.4-1.1-15-2.6-15-9.3V56.9
	c4.7-9.3,12.1-14.2,19.3-14.2c3.1,0,5.8,0.6,8.1,2l0.8-12.2C399,31.3,397,31,395,31z"/>
<path id="Path_00000003089947722489848280000012226159229150097074_" class="st0" d="M461.3,33.6v2.1c6.6,0.3,9.6,3.1,7.6,8.3
	l-21,52.6l-20.7-52.8c-2.1-4.9,1.2-7.8,8.3-8.1v-2.1h-29.2v2.1c4.9,0.3,7.8,2.3,10.3,8.3l26.3,65.3l-2.9,7.3
	c-4.6,11.6-10.9,16.8-18.8,16.8c-4,0-8.6-1.7-12.1-4.1l-3.8,11c3.1,1.2,7,2,11.2,2c12.4,0,20.8-8.3,27.5-24.8L473.5,44
	c2.4-6,5-8,10.1-8.3v-2.1H461.3z"/>
<path id="Path_00000053547142244620608860000007628531588813218205_" class="st0" d="M528.3,38.1v-4.3h-23.1V18.6h-2.1l-14.5,17.3
	v2.1h8.3v54.6c0,12.5,6.3,19.6,16.4,19.6c9.2,0,13.8-6,15.1-9.8l-1.1-0.6c-1.8,2-4.3,4.4-10.1,4.4c-7.8,0-11.9-5-11.9-13.8V38.1
	H528.3z"/>
<path id="Path_00000177475374481516327810000018161352133729742469_" class="st0" d="M603.3,99V53.7c0-14.4-8-21.9-20.3-21.9
	c-10.6,0-18.5,5.2-27.7,17.9V2.9h-2.1l-15.6,4.4v2.1h4.6c5.5,0,7.7,2.1,7.7,7.7V99c0,7.2-6.4,8.1-11.8,8.9v2.1H567v-2.1
	c-5.4-0.8-11.8-1.7-11.8-8.9V53.1c9.6-11.6,17.1-16.2,26.3-16.2c10.1,0,16.2,6.4,16.2,17.1v45c0,7.2-6.4,8.1-11.8,8.9v2.1h29.1v-2.1
	C609.7,107.1,603.3,106.2,603.3,99z"/>
<path id="Path_00000030454066695109976560000003126659731589039497_" class="st0" d="M739.3,98.8V54c0-14.5-8-22.5-20.8-22.5
	c-10.9,0-19,6.1-28,18.4c-1.4-11.9-8.9-18.4-20.5-18.4c-10.1,0-17.9,5.2-26.2,15.9V31.3h-2.1l-18.2,5.2v2.1h4.1
	c5.5,0.2,7.8,2.4,7.8,7.8v52.3c0,7-5.7,8.1-11.2,9v2.1H655v-2.1c-5.5-0.9-11.2-2-11.2-9V51.2c8.3-9.5,15-13.2,23.1-13.2
	c9.6,0,15.3,6.1,15.3,16.4v44.4c0,7-5.7,8.1-11,9v2.1h30.6v-2.1c-5.5-0.9-11.2-2-11.2-9V54v-0.8c9-10.9,16.1-15.1,24.9-15.1
	c9.5,0,15.3,6.1,15.3,16.4v44.4c0,7-5.7,8.1-11.2,9v2.1h30.6v-2.1C745,106.9,739.3,105.8,739.3,98.8z"/>
<path id="Shape_00000015340365021639127830000014511768538518847622_" class="st0" d="M774.2,20c4.4,0,7.8-3.4,7.8-7.8s-3.4-8-7.8-8
	c-4.7,0-8.4,3.5-8.4,8S769.4,20,774.2,20z M780.1,98.8V31.2H778l-19.6,5.5v2.1h4c5.7,0.3,8,2.6,8,8v52c0,6.9-5.4,8.1-10.9,9v2.1
	h31.4v-2.1C785.5,106.9,780.1,105.7,780.1,98.8z"/>
<path id="Shape_00000017480861708181067470000002303628735393170347_" class="st0" d="M869.3,103.7c-5.4-0.3-8-2.4-8-8V58.6
	c0-17-10.7-27.5-27.8-27.5c-21.1,0-35.8,15.5-27.7,31.5l11.9-4.1c-5.2-10.9,0.9-23.1,13-23.1c11.2,0,17.9,8.7,17.9,23v5.2l-11.9,2.3
	c-24.5,4.7-34.1,11.8-34.1,26.6c0,11.8,8.3,19.9,20.2,19.9c11.6,0,21.4-7.5,25.9-19.7v19.7h2.1L873,106v-2.1L869.3,103.7z
	 M848.7,88.3c-4,9.2-11.5,15.3-19.3,15.3c-8,0-13.6-6.3-13.6-14.8c0-10.1,6.9-15.8,21.4-18.5l11.5-2.3V88.3z"/>
<g>
	<rect x="119.9" y="105.2" class="st0" width="6.3" height="5.2"/>
	<rect x="113.6" y="105.2" class="st0" width="6.3" height="5.2"/>
	<rect x="107.3" y="105.2" class="st0" width="6.3" height="5.2"/>
	<rect x="101" y="105.2" class="st0" width="6.3" height="5.2"/>
	<rect x="94.7" y="105.2" class="st0" width="6.3" height="5.2"/>
	<rect x="88.4" y="105.2" class="st0" width="6.3" height="5.2"/>
	<rect x="82.1" y="105.2" class="st0" width="6.3" height="5.2"/>
	<rect x="75.8" y="105.2" class="st0" width="6.3" height="5.2"/>
	<rect x="69.5" y="105.2" class="st0" width="6.3" height="5.2"/>
	<rect x="25.4" y="105.2" class="st0" width="6.3" height="5.2"/>
	<rect x="19.1" y="105.2" class="st0" width="6.3" height="5.2"/>
	<rect x="63.2" y="105.2" class="st0" width="6.3" height="5.2"/>
	<rect x="12.8" y="105.2" class="st0" width="6.3" height="5.2"/>
	<rect x="6.5" y="105.2" class="st0" width="6.3" height="5.2"/>
	<rect x="0.2" y="105.2" class="st0" width="6.3" height="5.2"/>
	<rect x="107.3" y="100" class="st0" width="6.3" height="5.2"/>
	<rect x="101" y="100" class="st0" width="6.3" height="5.2"/>
	<rect x="94.7" y="100" class="st0" width="6.3" height="5.2"/>
	<rect x="88.4" y="100" class="st0" width="6.3" height="5.2"/>
	<rect x="82.1" y="100" class="st0" width="6.3" height="5.2"/>
	<rect x="75.8" y="100" class="st0" width="6.3" height="5.2"/>
	<rect x="12.8" y="100" class="st0" width="6.3" height="5.2"/>
	<rect x="107.3" y="94.7" class="st0" width="6.3" height="5.2"/>
	<rect x="101" y="94.7" class="st0" width="6.3" height="5.2"/>
	<rect x="94.7" y="94.7" class="st0" width="6.3" height="5.2"/>
	<rect x="88.4" y="94.7" class="st0" width="6.3" height="5.2"/>
	<rect x="82.1" y="94.7" class="st0" width="6.3" height="5.2"/>
	<rect x="75.8" y="94.7" class="st0" width="6.3" height="5.2"/>
	<rect x="12.8" y="94.7" class="st0" width="6.3" height="5.2"/>
	<rect x="101" y="89.5" class="st0" width="6.3" height="5.2"/>
	<rect x="94.7" y="89.5" class="st0" width="6.3" height="5.2"/>
	<rect x="88.4" y="89.5" class="st0" width="6.3" height="5.2"/>
	<rect x="82.1" y="89.5" class="st0" width="6.3" height="5.2"/>
	<rect x="75.8" y="89.5" class="st0" width="6.3" height="5.2"/>
	<rect x="19.1" y="89.5" class="st1" width="6.3" height="5.2"/>
	<rect x="101" y="84.2" class="st0" width="6.3" height="5.2"/>
	<rect x="94.7" y="84.2" class="st0" width="6.3" height="5.2"/>
	<rect x="88.4" y="84.2" class="st0" width="6.3" height="5.2"/>
	<rect x="82.1" y="84.2" class="st0" width="6.3" height="5.2"/>
	<rect x="75.8" y="84.2" class="st0" width="6.3" height="5.2"/>
	<rect x="69.5" y="84.2" class="st0" width="6.3" height="5.2"/>
	<rect x="19.1" y="84.2" class="st0" width="6.3" height="5.2"/>
	<rect x="94.7" y="79" class="st0" width="6.3" height="5.2"/>
	<rect x="88.4" y="79" class="st0" width="6.3" height="5.2"/>
	<rect x="82.1" y="79" class="st0" width="6.3" height="5.2"/>
	<rect x="75.8" y="79" class="st0" width="6.3" height="5.2"/>
	<rect x="69.5" y="79" class="st0" width="6.3" height="5.2"/>
	<rect x="94.7" y="73.7" class="st0" width="6.3" height="5.2"/>
	<rect x="88.4" y="73.7" class="st0" width="6.3" height="5.2"/>
	<rect x="82.1" y="73.7" class="st0" width="6.3" height="5.2"/>
	<rect x="75.8" y="73.7" class="st0" width="6.3" height="5.2"/>
	<rect x="69.5" y="73.7" class="st0" width="6.3" height="5.2"/>
	<rect x="63.2" y="73.7" class="st0" width="6.3" height="5.2"/>
	<rect x="56.9" y="73.7" class="st0" width="6.3" height="5.2"/>
	<rect x="50.6" y="73.7" class="st0" width="6.3" height="5.2"/>
	<rect x="44.3" y="73.7" class="st0" width="6.3" height="5.2"/>
	<rect x="38" y="73.7" class="st0" width="6.3" height="5.2"/>
	<rect x="31.7" y="73.7" class="st0" width="6.3" height="5.2"/>
	<rect x="25.4" y="73.7" class="st0" width="6.3" height="5.2"/>
	<rect x="88.4" y="68.5" class="st0" width="6.3" height="5.2"/>
	<rect x="82.1" y="68.5" class="st0" width="6.3" height="5.2"/>
	<rect x="75.8" y="68.5" class="st0" width="6.3" height="5.2"/>
	<rect x="69.5" y="68.5" class="st0" width="6.3" height="5.2"/>
	<rect x="63.2" y="68.5" class="st0" width="6.3" height="5.2"/>
	<rect x="25.4" y="68.5" class="st0" width="6.3" height="5.2"/>
	<rect x="88.4" y="63.2" class="st0" width="6.3" height="5.2"/>
	<rect x="82.1" y="63.2" class="st0" width="6.3" height="5.2"/>
	<rect x="75.8" y="63.2" class="st0" width="6.3" height="5.2"/>
	<rect x="69.5" y="63.2" class="st0" width="6.3" height="5.2"/>
	<rect x="63.2" y="63.2" class="st0" width="6.3" height="5.2"/>
	<rect x="56.9" y="63.2" class="st0" width="6.3" height="5.2"/>
	<rect x="31.7" y="63.2" class="st0" width="6.3" height="5.2"/>
	<rect x="82.1" y="58" class="st0" width="6.3" height="5.2"/>
	<rect x="75.8" y="58" class="st0" width="6.3" height="5.2"/>
	<rect x="69.5" y="58" class="st0" width="6.3" height="5.2"/>
	<rect x="63.2" y="58" class="st0" width="6.3" height="5.2"/>
	<rect x="56.9" y="58" class="st0" width="6.3" height="5.2"/>
	<rect x="31.7" y="58" class="st0" width="6.3" height="5.2"/>
	<rect x="82.1" y="52.7" class="st0" width="6.3" height="5.2"/>
	<rect x="75.8" y="52.7" class="st0" width="6.3" height="5.2"/>
	<rect x="69.5" y="52.7" class="st0" width="6.3" height="5.2"/>
	<rect x="63.2" y="52.7" class="st0" width="6.3" height="5.2"/>
	<rect x="56.9" y="52.7" class="st0" width="6.3" height="5.2"/>
	<rect x="82.1" y="47.5" class="st0" width="6.3" height="5.2"/>
	<rect x="75.8" y="47.5" class="st0" width="6.3" height="5.2"/>
	<rect x="69.5" y="47.5" class="st0" width="6.3" height="5.2"/>
	<rect x="63.2" y="47.5" class="st0" width="6.3" height="5.2"/>
	<rect x="56.9" y="47.5" class="st0" width="6.3" height="5.2"/>
	<rect x="50.6" y="47.5" class="st0" width="6.3" height="5.2"/>
	<rect x="38" y="47.5" class="st0" width="6.3" height="5.2"/>
	<rect x="75.8" y="42.2" class="st0" width="6.3" height="5.2"/>
	<rect x="69.5" y="42.2" class="st0" width="6.3" height="5.2"/>
	<rect x="63.2" y="42.2" class="st0" width="6.3" height="5.2"/>
	<rect x="56.9" y="42.2" class="st0" width="6.3" height="5.2"/>
	<rect x="50.6" y="42.2" class="st0" width="6.3" height="5.2"/>
	<rect x="38" y="42.2" class="st0" width="6.3" height="5.2"/>
	<rect x="75.8" y="37" class="st0" width="6.3" height="5.2"/>
	<rect x="69.5" y="37" class="st0" width="6.3" height="5.2"/>
	<rect x="63.2" y="37" class="st0" width="6.3" height="5.2"/>
	<rect x="56.9" y="37" class="st0" width="6.3" height="5.2"/>
	<rect x="50.6" y="37" class="st0" width="6.3" height="5.2"/>
	<rect x="44.3" y="37" class="st0" width="6.3" height="5.2"/>
	<rect x="69.5" y="31.7" class="st0" width="6.3" height="5.2"/>
	<rect x="63.2" y="31.7" class="st0" width="6.3" height="5.2"/>
	<rect x="56.9" y="31.7" class="st0" width="6.3" height="5.2"/>
	<rect x="50.6" y="31.7" class="st0" width="6.3" height="5.2"/>
	<rect x="44.3" y="31.7" class="st0" width="6.3" height="5.2"/>
	<rect x="69.5" y="26.5" class="st0" width="6.3" height="5.2"/>
	<rect x="63.2" y="26.5" class="st0" width="6.3" height="5.2"/>
	<rect x="56.9" y="26.5" class="st0" width="6.3" height="5.2"/>
	<rect x="50.6" y="26.5" class="st0" width="6.3" height="5.2"/>
	<rect x="63.2" y="21.2" class="st0" width="6.3" height="5.2"/>
	<rect x="56.9" y="21.2" class="st0" width="6.3" height="5.2"/>
	<rect x="50.6" y="21.2" class="st0" width="6.3" height="5.2"/>
	<rect x="63.2" y="16" class="st0" width="6.3" height="5.2"/>
	<rect x="56.9" y="16" class="st0" width="6.3" height="5.2"/>
	<rect x="50.6" y="16" class="st0" width="6.3" height="5.2"/>
	<rect x="63.2" y="10.7" class="st0" width="6.3" height="5.2"/>
	<rect x="56.9" y="10.7" class="st0" width="6.3" height="5.2"/>
	<rect x="56.9" y="5.5" class="st0" width="6.3" height="5.2"/>
</g>
</svg>
